<?xml version="1.0" encoding="UTF-8"?>
<svg width="256px" height="310px" viewBox="0 0 256 310" version="1.1" xmlns="http://www.w3.org/2000/svg" xmlns:xlink="http://www.w3.org/1999/xlink" preserveAspectRatio="xMidYMid">
    <title>Prisma</title>
    <g>
        <path d="M254.312882,235.518775 L148.000961,9.74987264 C145.309805,4.08935083 139.731924,0.359884549 133.472618,0.0359753113 C127.198908,-0.384374336 121.212054,2.71925839 117.939655,8.08838662 L2.63252565,194.847143 C-0.947129465,200.604248 -0.871814894,207.912774 2.8257217,213.594888 L59.2003287,300.896318 C63.5805009,307.626626 71.8662281,310.673635 79.5631922,308.384597 L243.161606,259.992851 C248.145475,258.535702 252.252801,254.989363 254.421072,250.271225 C256.559881,245.57581 256.523135,240.176915 254.32061,235.511047 L254.312882,235.518775 Z M237.244612,242.558991 L91.8669574,285.530263 C86.8864217,286.891512 81.5337519,284.768841 78.8357769,280.186862 L31.8575611,205.026704 C29.0206185,200.226915 29.0817668,194.064535 32.0322028,189.328641 L133.816794,26.4910377 C136.628173,21.9843213 141.858493,19.6601376 147.023122,20.6739977 C152.172291,21.6801329 156.232395,25.7236656 157.301132,30.8623648 L249.943241,228.261993 C251.255472,234.439544 245.432826,240.168598 239.198662,242.535451 L237.244612,242.558991 Z" fill="currentColor"></path>
    </g>
</svg> 