<?xml version="1.0" encoding="UTF-8"?>
<svg width="256px" height="256px" viewBox="0 0 256 256" version="1.1" xmlns="http://www.w3.org/2000/svg" xmlns:xlink="http://www.w3.org/1999/xlink" preserveAspectRatio="xMidYMid">
    <title>SQLAlchemy</title>
    <g>
        <path d="M128,0 C198.692448,0 256,57.307552 256,128 C256,198.692448 198.692448,256 128,256 C57.307552,256 0,198.692448 0,128 C0,57.307552 57.307552,0 128,0 Z M128,20 C68.3532272,20 20,68.3532272 20,128 C20,187.646773 68.3532272,236 128,236 C187.646773,236 236,187.646773 236,128 C236,68.3532272 187.646773,20 128,20 Z M76,76 L180,76 L180,96 L116,96 L116,116 L172,116 L172,136 L116,136 L116,160 L180,160 L180,180 L76,180 L76,76 Z" fill="currentColor"></path>
    </g>
</svg> 